<svg width="148" height="32" viewBox="0 0 148 32" fill="none" xmlns="http://www.w3.org/2000/svg">
<rect width="32" height="32" rx="16" fill="#FF0059"/>
<path d="M13.9997 10L13.333 13.3333M18.6663 10L17.9997 13.3333M22.6663 13.3333H9.33301M12.533 22H19.4663C20.5864 22 21.1465 22 21.5743 21.782C21.9506 21.5903 22.2566 21.2843 22.4484 20.908C22.6663 20.4802 22.6663 19.9201 22.6663 18.8V13.2C22.6663 12.0799 22.6663 11.5198 22.4484 11.092C22.2566 10.7157 21.9506 10.4097 21.5743 10.218C21.1465 10 20.5864 10 19.4663 10H12.533C11.4129 10 10.8529 10 10.425 10.218C10.0487 10.4097 9.74274 10.7157 9.55099 11.092C9.33301 11.5198 9.33301 12.0799 9.33301 13.2V18.8C9.33301 19.9201 9.33301 20.4802 9.55099 20.908C9.74274 21.2843 10.0487 21.5903 10.425 21.782C10.8529 22 11.4129 22 12.533 22Z" stroke="white" stroke-width="1.4" stroke-linecap="round" stroke-linejoin="round"/>
<path d="M46.732 22.216C45.544 22.216 44.506 21.946 43.618 21.406C42.73 20.866 42.04 20.116 41.548 19.156C41.056 18.184 40.81 17.056 40.81 15.772C40.81 14.476 41.062 13.336 41.566 12.352C42.082 11.356 42.808 10.582 43.744 10.03C44.692 9.466 45.814 9.184 47.11 9.184C48.586 9.184 49.81 9.538 50.782 10.246C51.754 10.954 52.384 11.932 52.672 13.18H50.098C49.906 12.592 49.558 12.136 49.054 11.812C48.55 11.476 47.902 11.308 47.11 11.308C45.85 11.308 44.878 11.71 44.194 12.514C43.51 13.306 43.168 14.398 43.168 15.79C43.168 17.182 43.504 18.262 44.176 19.03C44.86 19.786 45.784 20.164 46.948 20.164C48.088 20.164 48.946 19.858 49.522 19.246C50.11 18.622 50.464 17.806 50.584 16.798H47.398V15.07H52.906V22H50.782L50.602 20.344C50.194 20.944 49.684 21.406 49.072 21.73C48.46 22.054 47.68 22.216 46.732 22.216ZM55.1459 22V9.4H63.3719V11.254H57.4499V14.71H62.8319V16.51H57.4499V20.146H63.3719V22H55.1459ZM68.4861 22V11.254H64.8141V9.4H74.4801V11.254H70.7901V22H68.4861ZM80.476 22V9.4H83.212L87.226 17.392L91.186 9.4H93.922V22H91.618V13.306L88.108 20.2H86.29L82.78 13.306V22H80.476ZM102.271 22.216C101.011 22.216 99.9066 21.94 98.9586 21.388C98.0226 20.836 97.2846 20.074 96.7446 19.102C96.2166 18.118 95.9526 16.984 95.9526 15.7C95.9526 14.416 96.2166 13.288 96.7446 12.316C97.2846 11.332 98.0226 10.564 98.9586 10.012C99.9066 9.46 101.011 9.184 102.271 9.184C103.519 9.184 104.617 9.46 105.565 10.012C106.513 10.564 107.251 11.332 107.779 12.316C108.307 13.288 108.571 14.416 108.571 15.7C108.571 16.984 108.307 18.118 107.779 19.102C107.251 20.074 106.513 20.836 105.565 21.388C104.617 21.94 103.519 22.216 102.271 22.216ZM102.271 20.146C103.471 20.146 104.425 19.75 105.133 18.958C105.853 18.166 106.213 17.08 106.213 15.7C106.213 14.32 105.853 13.234 105.133 12.442C104.425 11.65 103.471 11.254 102.271 11.254C101.071 11.254 100.111 11.65 99.3906 12.442C98.6706 13.234 98.3106 14.32 98.3106 15.7C98.3106 17.08 98.6706 18.166 99.3906 18.958C100.111 19.75 101.071 20.146 102.271 20.146ZM113.837 22L109.229 9.4H111.695L115.259 19.642L118.841 9.4H121.271L116.663 22H113.837ZM122.769 22V9.4H125.073V22H122.769ZM127.515 22V9.4H135.741V11.254H129.819V14.71H135.201V16.51H129.819V20.146H135.741V22H127.515ZM142.223 22.216C141.299 22.216 140.483 22.06 139.775 21.748C139.067 21.424 138.509 20.968 138.101 20.38C137.693 19.78 137.483 19.054 137.471 18.202H139.901C139.925 18.79 140.135 19.288 140.531 19.696C140.939 20.092 141.497 20.29 142.205 20.29C142.817 20.29 143.303 20.146 143.663 19.858C144.023 19.558 144.203 19.162 144.203 18.67C144.203 18.154 144.041 17.752 143.717 17.464C143.405 17.176 142.985 16.942 142.457 16.762C141.929 16.582 141.365 16.39 140.765 16.186C139.793 15.85 139.049 15.418 138.533 14.89C138.029 14.362 137.777 13.66 137.777 12.784C137.765 12.04 137.939 11.404 138.299 10.876C138.671 10.336 139.175 9.922 139.811 9.634C140.447 9.334 141.179 9.184 142.007 9.184C142.847 9.184 143.585 9.334 144.221 9.634C144.869 9.934 145.373 10.354 145.733 10.894C146.105 11.434 146.303 12.076 146.327 12.82H143.861C143.849 12.376 143.675 11.986 143.339 11.65C143.015 11.302 142.559 11.128 141.971 11.128C141.467 11.116 141.041 11.242 140.693 11.506C140.357 11.758 140.189 12.13 140.189 12.622C140.189 13.042 140.321 13.378 140.585 13.63C140.849 13.87 141.209 14.074 141.665 14.242C142.121 14.41 142.643 14.59 143.231 14.782C143.855 14.998 144.425 15.25 144.941 15.538C145.457 15.826 145.871 16.21 146.183 16.69C146.495 17.158 146.651 17.764 146.651 18.508C146.651 19.168 146.483 19.78 146.147 20.344C145.811 20.908 145.313 21.364 144.653 21.712C143.993 22.048 143.183 22.216 142.223 22.216Z" fill="black"/>
</svg>
